<?xml version="1.0" encoding="UTF-8"?>
<svg id="svg6" xmlns="http://www.w3.org/2000/svg" xmlns:svg="http://www.w3.org/2000/svg" version="1.1" viewBox="0 0 24 24">
  <!-- Generator: Adobe Illustrator 29.0.1, SVG Export Plug-In . SVG Version: 2.1.0 Build 192)  -->
  <defs>
    <style>
      .st0 {
        fill: #fff;
        fill-rule: evenodd;
      }
    </style>
  </defs>
  <path id="path2" class="st0" d="M18,18v-3c0-.6.4-1,1-1s1,.4,1,1v4c0,.6-.4,1-1,1H5c-.6,0-1-.4-1-1v-4c0-.6.4-1,1-1s1,.4,1,1v3h12ZM11.3,4.3c0,0,.2-.2.3-.2.4-.2.8,0,1.1.2l3,3c.4.4.4,1,0,1.4s-1,.4-1.4,0l-1.3-1.3v7.6c0,.6-.4,1-1,1s-1-.4-1-1v-7.6l-1.3,1.3c-.4.4-1,.4-1.4,0s-.4-1,0-1.4l3-3Z"/>
</svg>